<svg width="25" height="25" viewBox="0 0 25 25" fill="none" xmlns="http://www.w3.org/2000/svg">
<g filter="url(#filter0_d_6910_8337)">
<circle cx="12" cy="12" r="12" fill="#19AB6E"/>
<circle cx="12" cy="12" r="10.75" stroke="white" stroke-width="2.5"/>
</g>
<g clip-path="url(#clip0_6910_8337)">
<path d="M16.2 15C16.1988 15.3975 16.0404 15.7783 15.7594 16.0594C15.4783 16.3404 15.0975 16.4988 14.7 16.5H7.5C7.10254 16.4988 6.72169 16.3404 6.44064 16.0594C6.15959 15.7783 6.00117 15.3975 6 15V9C6.00117 8.60254 6.15959 8.22169 6.44064 7.94064C6.72169 7.65959 7.10254 7.50117 7.5 7.5H14.7C15.0975 7.50117 15.4783 7.65959 15.7594 7.94064C16.0404 8.22169 16.1988 8.60254 16.2 9V9.9H15.3C14.145 9.9 13.2 10.845 13.2 12C13.2 13.155 14.145 14.1 15.3 14.1H16.2V15ZM16.5 7.5H16.167C16.3673 7.69507 16.5265 7.92831 16.6352 8.18594C16.7439 8.44358 16.7998 8.72038 16.7998 9V9.9H18V9C17.9988 8.60254 17.8404 8.22169 17.5594 7.94064C17.2783 7.65959 16.8975 7.50117 16.5 7.5ZM16.8 15C16.8001 15.2796 16.7441 15.5564 16.6354 15.8141C16.5267 16.0717 16.3675 16.3049 16.1672 16.5H16.5C16.8975 16.4988 17.2783 16.3404 17.5594 16.0594C17.8404 15.7783 17.9988 15.3975 18 15V14.1H16.8V15ZM15.3 10.5H18V13.5H15.3C14.9022 13.5 14.5206 13.342 14.2393 13.0607C13.958 12.7794 13.8 12.3978 13.8 12C13.8 11.6022 13.958 11.2206 14.2393 10.9393C14.5206 10.658 14.9022 10.5 15.3 10.5ZM15.3 11.4C15.1813 11.4 15.0653 11.4352 14.9667 11.5011C14.868 11.567 14.7911 11.6608 14.7457 11.7704C14.7003 11.88 14.6884 12.0007 14.7115 12.1171C14.7347 12.2334 14.7918 12.3404 14.8757 12.4243C14.9596 12.5082 15.0666 12.5653 15.1829 12.5885C15.2993 12.6116 15.42 12.5997 15.5296 12.5543C15.6392 12.5089 15.733 12.432 15.7989 12.3333C15.8648 12.2347 15.9 12.1187 15.9 12C15.9 11.8409 15.8368 11.6883 15.7243 11.5757C15.6117 11.4632 15.4591 11.4 15.3 11.4Z" fill="white"/>
</g>
<defs>
<filter id="filter0_d_6910_8337" x="0" y="0" width="24.5" height="24.5" filterUnits="userSpaceOnUse" color-interpolation-filters="sRGB">
<feFlood flood-opacity="0" result="BackgroundImageFix"/>
<feColorMatrix in="SourceAlpha" type="matrix" values="0 0 0 0 0 0 0 0 0 0 0 0 0 0 0 0 0 0 127 0" result="hardAlpha"/>
<feOffset dx="0.5" dy="0.5"/>
<feComposite in2="hardAlpha" operator="out"/>
<feColorMatrix type="matrix" values="0 0 0 0 0 0 0 0 0 0 0 0 0 0 0 0 0 0 0.25 0"/>
<feBlend mode="normal" in2="BackgroundImageFix" result="effect1_dropShadow_6910_8337"/>
<feBlend mode="normal" in="SourceGraphic" in2="effect1_dropShadow_6910_8337" result="shape"/>
</filter>
<clipPath id="clip0_6910_8337">
<rect width="12" height="12" fill="white" transform="translate(6 6)"/>
</clipPath>
</defs>
</svg>
