<svg width="25" height="25" viewBox="0 0 25 25" fill="none" xmlns="http://www.w3.org/2000/svg">
<g filter="url(#filter0_d_6910_8308)">
<circle cx="12" cy="12" r="12" fill="#D9D9D9"/>
<circle cx="12" cy="12" r="10.75" stroke="white" stroke-width="2.5"/>
</g>
<g clip-path="url(#clip0_6910_8308)">
<path d="M12 2C17.5229 2 22 6.47713 22 12C22 17.5229 17.5229 22 12 22C6.47713 22 2 17.5229 2 12C2 6.47713 6.47713 2 12 2Z" fill="black"/>
<path d="M8.30556 14.6595C8.25441 14.6823 8.20868 14.7153 8.17106 14.7567L6.2195 16.9055C6.19325 16.9345 6.17593 16.9702 6.16943 17.0087C6.16321 17.0471 6.16808 17.0866 6.18378 17.1223C6.19947 17.1581 6.22519 17.1884 6.25793 17.2097C6.29068 17.2311 6.32884 17.2425 6.36781 17.2425L15.5315 17.2501C15.5876 17.2501 15.6428 17.2384 15.6942 17.2157C15.7453 17.193 15.7914 17.1599 15.829 17.1185L17.7805 14.9697C17.8068 14.9407 17.8241 14.905 17.8306 14.8666C17.8368 14.8281 17.832 14.7886 17.8163 14.7529C17.8006 14.7172 17.7748 14.6869 17.7421 14.6655C17.7094 14.6441 17.6712 14.6327 17.6322 14.6327L8.46822 14.6252C8.41219 14.6252 8.35698 14.6368 8.30583 14.6595M6.36808 10.6939C6.32911 10.6939 6.29095 10.7053 6.2582 10.7267C6.22546 10.748 6.19975 10.7783 6.18405 10.8141C6.16835 10.8498 6.16321 10.8893 6.1697 10.9277C6.17593 10.9662 6.19325 11.0022 6.21977 11.0309L8.17133 13.1808C8.20895 13.2222 8.25495 13.2552 8.30611 13.2779C8.35726 13.3007 8.41274 13.3123 8.46876 13.3123L17.6325 13.3047C17.6715 13.3047 17.7096 13.2934 17.7424 13.272C17.7751 13.2506 17.8008 13.2203 17.8165 13.1846C17.8322 13.1488 17.8374 13.1093 17.8309 13.0709C17.8246 13.0325 17.8073 12.9965 17.7808 12.9678L15.8292 10.8179C15.7916 10.7765 15.7459 10.7434 15.6947 10.7207C15.6436 10.698 15.5884 10.6863 15.5324 10.6863L6.36835 10.6939H6.36808ZM8.46795 6.7502C8.41192 6.7502 8.35671 6.76184 8.30556 6.78457C8.25441 6.80731 8.20868 6.84032 8.17106 6.88173L6.2195 9.03058C6.19325 9.05954 6.17593 9.09526 6.16943 9.13369C6.16321 9.17212 6.16808 9.21164 6.18378 9.24736C6.19947 9.28309 6.22519 9.3134 6.25793 9.33478C6.29068 9.35616 6.32884 9.36752 6.36781 9.36752L15.5315 9.3751C15.5876 9.3751 15.6428 9.36346 15.6942 9.34073C15.7453 9.318 15.7914 9.28498 15.829 9.24357L17.7805 7.09472C17.8068 7.06576 17.8241 7.03004 17.8306 6.99161C17.8368 6.95318 17.832 6.91367 17.8163 6.87794C17.8006 6.84222 17.7748 6.81191 17.7421 6.79053C17.7094 6.76915 17.6712 6.75778 17.6322 6.75778L8.46822 6.7502H8.46795Z" fill="white"/>
</g>
<defs>
<filter id="filter0_d_6910_8308" x="0" y="0" width="24.5" height="24.5" filterUnits="userSpaceOnUse" color-interpolation-filters="sRGB">
<feFlood flood-opacity="0" result="BackgroundImageFix"/>
<feColorMatrix in="SourceAlpha" type="matrix" values="0 0 0 0 0 0 0 0 0 0 0 0 0 0 0 0 0 0 127 0" result="hardAlpha"/>
<feOffset dx="0.5" dy="0.5"/>
<feComposite in2="hardAlpha" operator="out"/>
<feColorMatrix type="matrix" values="0 0 0 0 0 0 0 0 0 0 0 0 0 0 0 0 0 0 0.25 0"/>
<feBlend mode="normal" in2="BackgroundImageFix" result="effect1_dropShadow_6910_8308"/>
<feBlend mode="normal" in="SourceGraphic" in2="effect1_dropShadow_6910_8308" result="shape"/>
</filter>
<clipPath id="clip0_6910_8308">
<rect width="20" height="20" fill="white" transform="translate(2 2)"/>
</clipPath>
</defs>
</svg>
