<svg width="25" height="25" viewBox="0 0 25 25" fill="none" xmlns="http://www.w3.org/2000/svg">
<g filter="url(#filter0_d_6910_8271)">
<circle cx="12" cy="12" r="12" fill="#D9D9D9"/>
<circle cx="12" cy="12" r="10.75" stroke="white" stroke-width="2.5"/>
</g>
<g clip-path="url(#clip0_6910_8271)">
<path d="M12 22C17.5228 22 22 17.5228 22 12C22 6.47715 17.5228 2 12 2C6.47715 2 2 6.47715 2 12C2 17.5228 6.47715 22 12 22Z" fill="#1F113B"/>
<g clip-path="url(#clip1_6910_8271)">
<path d="M12.0547 19.3313C12.2227 19.3313 12.3589 19.466 12.3589 19.6322C12.3589 19.7984 12.2227 19.9331 12.0547 19.9331C11.8867 19.9331 11.7504 19.7984 11.7504 19.6322C11.7504 19.466 11.8867 19.3313 12.0547 19.3313ZM11.7242 4.95832C11.8728 4.9706 11.9929 5.08325 12.013 5.2293L12.3748 7.85834C12.4964 8.72691 13.544 9.10326 14.1906 8.51302L17.8159 5.21332C17.9034 5.13372 18.0396 5.13924 18.1202 5.22564C18.194 5.30491 18.1963 5.42627 18.1253 5.50813L14.964 9.15478C14.382 9.82493 14.8114 10.8714 15.6986 10.9461L18.488 11.215C18.6269 11.2284 18.7285 11.3505 18.7149 11.4877C18.7038 11.6009 18.6166 11.6924 18.5028 11.7101L15.5718 12.1678C14.7209 12.2838 14.3355 13.2915 14.889 13.9462L15.9194 15.161C16.0024 15.2588 15.9894 15.4046 15.8903 15.4867C15.8064 15.5562 15.6849 15.5588 15.5979 15.4932L14.3277 14.5339C13.6422 14.0184 12.6542 14.4565 12.5818 15.3096L12.3019 18.6369C12.2903 18.7743 12.1682 18.8764 12.0291 18.865C11.911 18.8553 11.8156 18.7659 11.7996 18.65L11.3557 15.436C11.2368 14.5674 10.1892 14.191 9.53994 14.7813L5.68331 18.293C5.60348 18.3656 5.47912 18.3606 5.40555 18.2818C5.33805 18.2094 5.336 18.0986 5.40077 18.0238L8.76659 14.1395C9.34858 13.4694 8.92176 12.4229 8.03456 12.3482L5.24457 12.0793C5.10565 12.0659 5.00402 11.9437 5.01757 11.8065C5.02875 11.6933 5.11594 11.6019 5.22964 11.5841L8.15872 11.1265C9.00973 11.0105 9.3977 10.0028 8.84419 9.3481L8.14275 8.52118C8.03981 8.39984 8.05594 8.21901 8.17878 8.11731C8.28288 8.0311 8.4336 8.02781 8.54147 8.10934L9.40285 8.76045C10.0883 9.27594 11.0764 8.83779 11.1488 7.98467L11.3805 5.24548C11.3951 5.07242 11.549 4.94386 11.7242 4.95832ZM4.30421 11.499C4.47223 11.499 4.60843 11.6337 4.60843 11.7999C4.60843 11.9661 4.47223 12.1008 4.30421 12.1008C4.1362 12.1008 4 11.9661 4 11.7999C4 11.6337 4.1362 11.499 4.30421 11.499ZM19.5617 11.1935C19.7297 11.1935 19.866 11.3282 19.866 11.4944C19.866 11.6606 19.7297 11.7953 19.5617 11.7953C19.3937 11.7953 19.2575 11.6606 19.2575 11.4944C19.2575 11.3282 19.3937 11.1935 19.5617 11.1935ZM11.6803 4C11.8483 4 11.9844 4.13471 11.9844 4.30089C11.9844 4.46706 11.8483 4.60177 11.6803 4.60177C11.5122 4.60177 11.376 4.46706 11.376 4.30089C11.376 4.13471 11.5122 4 11.6803 4Z" fill="url(#paint0_linear_6910_8271)"/>
<path d="M11.8627 14.4893C13.4498 14.4893 14.7364 13.2169 14.7364 11.6471C14.7364 10.0774 13.4498 8.80493 11.8627 8.80493C10.2756 8.80493 8.98904 10.0774 8.98904 11.6471C8.98904 13.2169 10.2756 14.4893 11.8627 14.4893Z" fill="url(#paint1_radial_6910_8271)"/>
</g>
</g>
<defs>
<filter id="filter0_d_6910_8271" x="0" y="0" width="24.5" height="24.5" filterUnits="userSpaceOnUse" color-interpolation-filters="sRGB">
<feFlood flood-opacity="0" result="BackgroundImageFix"/>
<feColorMatrix in="SourceAlpha" type="matrix" values="0 0 0 0 0 0 0 0 0 0 0 0 0 0 0 0 0 0 127 0" result="hardAlpha"/>
<feOffset dx="0.5" dy="0.5"/>
<feComposite in2="hardAlpha" operator="out"/>
<feColorMatrix type="matrix" values="0 0 0 0 0 0 0 0 0 0 0 0 0 0 0 0 0 0 0.25 0"/>
<feBlend mode="normal" in2="BackgroundImageFix" result="effect1_dropShadow_6910_8271"/>
<feBlend mode="normal" in="SourceGraphic" in2="effect1_dropShadow_6910_8271" result="shape"/>
</filter>
<linearGradient id="paint0_linear_6910_8271" x1="6.07307" y1="6.5344" x2="15.1714" y2="14.771" gradientUnits="userSpaceOnUse">
<stop stop-color="#FFC10B"/>
<stop offset="1" stop-color="#FB3F2E"/>
</linearGradient>
<radialGradient id="paint1_radial_6910_8271" cx="0" cy="0" r="1" gradientUnits="userSpaceOnUse" gradientTransform="translate(11.2065 10.5979) rotate(67.5196) scale(4.17792 4.21853)">
<stop stop-color="#FFC10B"/>
<stop offset="1" stop-color="#FB3F2E"/>
</radialGradient>
<clipPath id="clip0_6910_8271">
<rect width="20" height="20" fill="white" transform="translate(2 2)"/>
</clipPath>
<clipPath id="clip1_6910_8271">
<rect width="16" height="16" fill="white" transform="translate(4 4)"/>
</clipPath>
</defs>
</svg>
